<?xml version="1.0" encoding="utf-8"?>
<svg viewBox="0 0 354.813 138.731" width="841.89px" height="595.276px" xmlns="http://www.w3.org/2000/svg">
  <defs>
    <clipPath id="clippath0" transform="">
      <path d="M 0 595.276 L 841.89 595.276 L 841.89 0 L 0 0 Z" style="fill: none; clip-rule: nonzero;"/>
    </clipPath>
  </defs>
  <g transform="matrix(1, 0, 0, -1, 0, 595.276001)">
    <g transform="">
      <path d="M 0 595.276 L 841.89 595.276 L 841.89 0 L 0 0 Z" style="fill: none;"/>
    </g>
    <g style="clip-path: url(#clippath0);">
      <g transform="translate(43.2261 522.8459)">
        <path d="M 0 0 C 0 15.554 8.856 26.858 23.402 26.858 C 34.275 26.858 41.476 20.81 43.204 11.233 L 38.451 11.233 C 37.083 17.93 31.755 22.682 23.33 22.682 C 11.233 22.682 5.041 12.673 5.041 0 C 5.041 -12.889 11.449 -22.394 23.258 -22.394 C 33.195 -22.394 38.595 -15.481 39.387 -6.984 L 44.068 -6.984 C 43.78 -12.025 41.835 -17.065 38.739 -20.45 C 35.139 -24.482 29.738 -26.642 23.186 -26.642 C 8.856 -26.642 0 -15.769 0 0" style="fill: rgb(44, 46, 53); fill-opacity: 1;"/>
      </g>
    </g>
    <g style="clip-path: url(#clippath0);">
      <g transform="translate(146.6206 517.3015)">
        <path d="M 0 0 L -7.057 19.226 C -8.137 22.106 -9.649 26.714 -9.649 26.714 L -9.793 26.714 C -9.793 26.714 -11.161 22.322 -12.313 19.226 L -19.514 0 Z M -12.457 31.323 L -6.984 31.323 L 12.601 -20.162 L 7.417 -20.162 L 1.44 -3.96 L -20.954 -3.96 L -27.002 -20.162 L -31.898 -20.162 Z" style="fill: rgb(44, 46, 53); fill-opacity: 1;"/>
      </g>
    </g>
    <g style="clip-path: url(#clippath0);">
      <g transform="translate(184.7056 548.6242)">
        <path d="M 0 0 L 6.553 0 L 24.338 -44.932 L 24.482 -44.932 L 41.836 0 L 48.604 0 L 48.604 -51.484 L 43.924 -51.484 L 43.924 -6.625 L 43.78 -6.625 C 43.78 -6.625 42.412 -10.729 41.332 -13.609 L 26.426 -51.484 L 22.178 -51.484 L 7.129 -13.609 C 6.049 -10.945 4.608 -6.625 4.608 -6.625 L 4.464 -6.625 L 4.464 -51.484 L 0 -51.484 Z" style="fill: rgb(44, 46, 53); fill-opacity: 1;"/>
      </g>
    </g>
    <g style="clip-path: url(#clippath0);">
      <g transform="translate(283.708 523.6379)">
        <path d="M 0 0 C 8.353 0 11.809 3.96 11.809 10.441 C 11.809 17.066 7.849 20.738 0.432 20.738 L -14.401 20.738 L -14.401 0 Z M -19.226 24.986 L 1.008 24.986 C 6.625 24.986 10.369 23.402 13.105 20.522 C 15.409 18.074 16.706 14.833 16.706 10.585 C 16.706 1.081 11.161 -4.104 0.36 -4.104 L -14.401 -4.104 L -14.401 -26.498 L -19.226 -26.498 Z" style="fill: rgb(44, 46, 53); fill-opacity: 1;"/>
      </g>
    </g>
  </g>
</svg>